<?xml version="1.0" encoding="UTF-8"?>
<svg width="1200pt" height="1200pt" version="1.1" viewBox="0 0 1200 1200" xmlns="http://www.w3.org/2000/svg">
 <g fill="#fff">
  <path d="m328.73 327.46c37.465-12.898 72.168-25.203 107.09-36.797 76.25-25.312 151.85-15.891 225.07 3.3672 61.418 16.148 120.13 41.363 180.43 61.516h-0.003906c7.6211 1.582 15.539-0.5625 21.32-5.7734 6.0156-8.8008 10.41-18.605 12.969-28.953 21.195-64.402 49.012-124.86 103.52-169.62 5.6875-6.0312 12.664-10.699 20.406-13.664 7-0.11328 13.562 3.3867 17.359 9.2656 6.2383 13.305 7.5352 29.176 14.371 42.047 34.715 65.355 80.266 126.34 91.043 201.98 8.4844 59.738 11.82 120.09 9.9766 180.4-1.0273 33.207-17.461 66.488-27.047 99.711h-0.003906c-6.6016 28.949-15.09 57.434-25.406 85.273-60.773 138.91-146.21 252.23-303.19 293.14-55.633 14.598-113.74 17.168-170.45 7.5508-73.43-12.203-146.43-27.559-218.36-45.941-63.055-16.113-116-52.094-163.35-95.473-20.172-18.48-39.211-38.188-58.664-57.441-64.273-63.602-86.273-146.05-93.281-233.49v-0.003906c-12.43-145.61 23.59-291.25 102.46-414.28 12.449-18.578 26.441-36.074 41.832-52.301 5.8203-1.8906 12.203-0.73047 16.988 3.0859 7.7344 11.297 14.699 23.102 20.844 35.332 24.898 44.031 49.773 88.074 74.066 131.07zm-105.45-143.43c-40.77 48.559-72.691 103.9-94.309 163.5-36.402 94.734-47.906 197.22-33.418 297.66 5.4727 51.453 21.113 101.31 46.012 146.66 48.812 81.727 122.04 146.07 209.37 183.96 76.477 33.805 158.38 49.348 242.05 60.566 82.207 11.023 160.86 6.0273 238.74-27.332 58.516-22.977 109.54-61.695 147.41-111.87 49.699-69.082 89.988-142.83 105.6-227.62 10.039-54.535 36.641-106.68 29.77-163.64-5.7227-47.457-4.832-97.68-20.445-141.43-21.016-58.895-54.23-113.22-83.895-168.57-14.285-26.652-23.441-28.637-42.352-3.0625v0.003906c-24.117 34.492-45.512 70.816-63.984 108.64-11.68 22.434-17.035 47.93-27.945 70.828-11.457 24.055-18.852 24.508-39.184 9.5469h0.003906c-9.332-7.6758-19.816-13.832-31.07-18.238-57.59-18.609-114.67-39.629-173.68-53.043-103.29-23.48-204.53-14.418-298.51 46.109-12.238 7.8828-15.668 2.9766-21.355-7.9414-28.223-54.156-57.805-107.57-88.797-164.74z"/>
  <path d="m609.68 816.96c-33.516 60.188-88.945 87.383-150.77 93.234-80 7.5742-157.99-0.15234-206.01-76.957-5.957-9.5273-14.652-17.391-19.863-27.246l-0.003906 0.003907c-1.5977-6.4219-1.8555-13.102-0.75391-19.625 6.5977 0.33984 13.02 2.2695 18.711 5.6211 14.102 16.48 26.836 34.176 39.512 51.836 4.1445 6.6211 7.8242 13.52 11.016 20.648l8.5039-7.1758c-3.9492-10.242-8.3789-20.312-11.777-30.75-22.41-68.844 7.4648-124.84 52.016-175.34 20.578-23.324 59.027-28.938 78.848-17.273 25.738 15.145 36.758 43.047 26.805 78.48v-0.003907c-7.6406 26.039-17.375 51.418-29.105 75.891-17.453 37.449-14.941 69.266 11.441 94.301h0.003906c5.0898 4.5742 11.727 7.0469 18.57 6.9258 39.051-3.0234 71.387-23.566 102.13-46.066v-0.003906c23.516-17.82 38.277-44.859 40.547-74.277 2.8359-7.5273 7.1367-14.422 12.645-20.289 5.8203 5.3477 10.395 11.914 13.395 19.227 12.539 101.35 86.113 119.02 156.57 122.04 38.406 1.6445 67.75-27.531 95.891-52.586 8.6992-7.7461 16.359-16.84 25.695-23.621 5.5469-2.2812 11.504-3.3789 17.5-3.2344-0.375 6.6562 1.9648 16.254-1.5469 19.508-34.082 31.574-67.258 65.52-113.54 78.379-70.785 19.672-154.09-19.059-196.44-91.652zm-188.68-159.26c-22.176 54.039-43.742 102.02-61.016 151.36h0.003906c-4.1953 17.395-3.6172 35.598 1.6719 52.691 5.9141 24.836 16.164 28.297 44.727 20.172-21.52-32.445-17.41-65.746-0.76172-99.824l0.003906 0.003906c9.2461-18.453 17.344-37.461 24.246-56.91 6.8789-20.043 13.242-41.07-8.875-67.492zm-19.664-0.57422c-36.676-2.457-52.539 19.73-64.914 45-32.102 65.543-32.668 110.39-4.1016 142.27 1.7969-67.711 38.254-125.06 69.016-187.27z"/>
  <path d="m564.97 629.12c5.5859-0.71094 11.258 0.27734 16.273 2.8398 11.867 8.5586 21.578 5.4648 33.691 0.14844l-0.003906 0.003906c8.8672-4.1211 18.906-4.9766 28.34-2.418 9.4375 2.5625 17.664 8.375 23.23 16.41 5.5664 8.0391 8.1133 17.781 7.1953 27.516-2.8242 31.637-33.688 70.938-80.156 58.898h-0.003907c-18.707-4.7773-36.785-11.746-53.859-20.758-10.41-5.7188-18.344-15.078-22.277-26.285-3.9375-11.207-3.6016-23.473 0.94531-34.445 5.7695-16.855 11.961-20.266 46.625-21.91z"/>
  <path d="m793.73 488.49c46.023 1.082 83.293 25.414 120.35 49.449 4.3594 2.8281 3.4375 13.547 4.9609 20.605h0.003906c-6.7539 1.3359-13.727 1.0742-20.359-0.76562-41.297-27.836-83.48-51.266-137.41-43.246-32.297 4.8008-62.5 12.352-86.941 37.141-7.3555 4.4883-15.555 7.4102-24.086 8.582 1.8984-8.8008 5.4102-17.18 10.359-24.707 36.836-36.656 83.684-44.379 133.13-47.059z"/>
  <path d="m407.69 487.53c40.047-0.44531 79.145 12.184 111.36 35.969 4.3086 5.6719 7.3438 12.203 8.9102 19.148-7.2891 1.5312-14.801 1.6719-22.141 0.41016-20.051-8.1602-38.473-20.48-58.977-27.105-44.379-14.348-85.375 2.8945-125.49 22.375h0.003906c-3.3281 2.457-6.9336 4.5195-10.742 6.1406-6.5273 0.85156-13.105 1.2344-19.688 1.1406 1.1016-7.1133 3.9219-13.855 8.2148-19.633 32.551-21.379 69.793-34.57 108.55-38.445z"/>
 </g>
</svg>
