<?xml version="1.0" encoding="UTF-8"?>
<svg width="1200pt" height="1200pt" version="1.1" viewBox="0 0 1200 1200" xmlns="http://www.w3.org/2000/svg">
 <g fill="#fff">
  <path d="m878.23 359.23c3.3164-14.051 7.2539-27.133 9.3867-40.414v0.003906c9.1445-58.055 34.129-112.46 72.203-157.23 4.6445-5.543 10.031-10.465 14.996-15.746 2.5898-4.0078 7.1484-6.293 11.906-5.9727 4.7578 0.31641 8.9727 3.1914 11.004 7.5039 39.527 45.074 69.41 97.762 87.805 154.82 16.379 52.879 28.723 106.93 36.926 161.68 7.875 60.059 7.1406 121.13-17.516 181.41-10.961 26.801-9.3633 58.012-18.918 85.574-12.254 33.199-27.031 65.41-44.203 96.355-5.6875 10.727-19.277 17.297-28.355 26.641-27.414 28.211-52.645 58.852-81.914 84.898l0.003906-0.003906c-52.484 48.387-118.41 79.723-189.07 89.871-55.797 7.5664-112.06 18.695-167.57 18.477-99.164-0.38672-195.61-17.977-278.9-71.164-65.621-41.449-116.14-102.94-144.07-175.36-20.941-53.102-44.922-104.96-63.441-158.98-7.8867-27.773-12.113-56.457-12.57-85.32-8.5312-133.46 41.832-250.32 119.94-359 9.1406-12.715 17.691-11.137 24.961 0.20703 28.434 44.355 56.852 88.73 84.738 133.45 7.1914 11.535 9.5586 30.777 19.375 34.762 9.5195 3.8633 25.551-8.5508 39.105-11.621 17.969-4.0703 36.387-5.4727 54.465-9.0312 16.059-3.1602 31.805-8.6953 47.895-11.363 19.395-3.2148 39-4.6484 58.527-6.6016 116.99-11.688 229.62 7.7773 341.78 30.535 3.3008 0.66797 6.6914 0.95312 11.512 1.6211zm-673.2-145.02c-22.199 34.637-42.629 70.375-61.215 107.08-27.262 61.078-52.312 123.01-49.523 191.37 1.8477 45.316-1.1758 91.004 16.145 133.53 17.797 43.695 33.727 88.316 53.391 131.07 17.066 37.098 33.605 75.906 58.531 107.3v0.003906c47.785 61.391 115.27 104.45 191.08 121.91 72.52 17.129 145.03 32.082 221.8 17.809 30.137-5.6016 60.68-8.4922 91.082-11.762 68.324-5.9844 132.78-34.312 183.39-80.602 55.133-52.008 118.75-100.21 145.15-176.32 9.5586-27.566 16.582-55.918 24.262-84.023 3.9648-14.504 7.1133-29.215 10.145-43.906 6.4961-31.484 17.824-63.262 18.012-94.488v-0.003906c0.13672-88.121-17.742-175.34-52.539-256.31-15.938-33.109-34.254-65.023-54.805-95.488-9.6836-15.992-22.109-13.059-31.902 1.457-39.691 58.832-67.566 121.11-62.711 192.59 0.5 5.5312-1.3477 11.02-5.0898 15.117-5.0938 1.7148-10.648 1.3906-15.508-0.90625-13.797-6.2852-28.012-11.609-42.543-15.934-100.57-19.586-201.57-37.113-306.26-27.262-26.043 2.4492-52.094 5.7188-78.004 9.8672-16.793 2.6875-33.238 9.3086-50.023 11.219-28.172 1.625-55.199 11.715-77.543 28.949-14.199 11.789-23.043 8.1523-27.387-8.7578-11.699-45.539-37.418-83.41-62.426-121.61-10.488-16.023-21.598-31.613-35.512-51.902z"/>
  <path d="m573.31 715.88c-30.543 42.066-71.469 55.359-117.39 56.469h0.003906c-2.7383 0.69141-5.6094 0.64063-8.3203-0.15234-5.043-4.5703-9.8203-9.4258-14.316-14.539 5.0781-3.5742 10.867-6.0078 16.977-7.1289 35.25 5.2812 70.941-6.2617 96.426-31.18 21.582-20.762 22.277-32.117 1.4375-50.738-9.7812-8.7383-20.945-16.047-29.961-25.473l0.003907 0.003906c-3.5078-4.8633-4.5312-11.086-2.7734-16.812 3.8477-3.8633 9.1484-5.9141 14.59-5.6445 6.2773 0.33203 12.426 1.9141 18.082 4.6562 14.398 6.207 26.438 10.637 41.988-4.0508 5.6992-5.3828 25.785-0.97656 34.957 5.2031 5.0508 3.4062 2.2383 19.875 0.64062 30.215h-0.003906c-2.0312 5.5156-5.9219 10.148-11.004 13.102-28.676 19.766-20.668 39.391-8.1914 60.801v0.003907c7.9727 15.266 20.555 27.633 35.957 35.344 15.406 7.707 32.848 10.367 49.848 7.5977 4.1133-1.1094 8.3945-1.4531 12.633-1.0195 6.3711 2.4805 12.531 5.4688 18.426 8.9297-5.6602 4.6445-11.875 13.598-16.891 13.207-25.633-1.9883-54.086-0.64844-75.48-11.59-20.605-10.539-33.922-34.527-50.121-52.898-2.9961-4.4922-5.5156-9.2852-7.5117-14.305z"/>
  <path d="m263.27 559.98c-1.4922 2.9414-2.8164 5.8945-3.9414 8.6562h0.003906c4.0547 8.4336 11.535 14.723 20.539 17.266 55.832 8.3516 111.1-4.3867 166.04-17.227v0.003907c8.0391-3.7695 15.332-8.9609 21.527-15.32-5.7695-4.1445-11.176-10.324-17.066-13.801-60.117 20.43-123.99 27.398-187.1 20.422z"/>
  <path d="m921.25 537.07c-3.707-1.3203-7.4414-2.2617-11.164-3.3594-8.168 3.0586-16.527 5.5781-25.027 7.5391-44.391 21.629-95.395 25.363-142.46 10.434-1.0352 1.8047-1.7773 3.7617-2.1992 5.8008 0.60937 4.1484 2.3203 8.0586 4.9453 11.332 2.625 3.2695 6.0781 5.7812 9.9961 7.2734 16.656 2.9766 33.504 4.7148 50.414 5.2031 38.484-5.0391 75.203-9.2227 111.72-15.195h0.003907c7.25-3.418 13.688-8.3398 18.883-14.441-4.0117-5.8242-9.1484-10.785-15.113-14.586z"/>
  <path d="m990.96 670.36c-6.4766 1.3164-12.926 3.1719-19.438 3.8555-28.891 3.0156-57.789 5.8125-86.699 8.3906-5.5234 0.77734-11.148 0.43359-16.535-1.0156-3.4141-1.9648-5.7422-5.3867-6.3047-9.2891 0.96094-3.25 3.4492-5.8281 6.6641-6.9023 35.887-3.0938 71.789-5.9961 107.69-7.8984h0.003906c5.6602 1.3008 10.949 3.8867 15.453 7.5547z"/>
  <path d="m998.93 702.67c-5.2227 2.4609-10.703 4.3359-16.344 5.5859-32.551 1.8125-65.113 3.5625-97.637 4.2148h0.003906c-5.3125-1.7344-10.105-4.7695-13.941-8.8359 3.4258-3.9219 7.7383-6.9609 12.578-8.875 34.539-0.035156 69.035 0.87109 103.51 1.8516v0.003906c4.2422 1.3672 8.2383 3.4102 11.828 6.0547z"/>
  <path d="m164.44 728.77c37.145-11.668 70.895-5.6797 106.32-6.8945-19.07 19.098-85.375 24.719-106.32 6.8945z"/>
  <path d="m264.75 697.12c-25.73 4.3008-51.418 9.168-77.227 12.418-5.9492-1.1406-11.531-3.7227-16.258-7.5195 4.3203-4.5898 9.5273-8.2578 15.309-10.777 18.832-2.9922 37.816-4.9258 56.867-5.7852 7.6758 0.58984 15.246 2.168 22.516 4.7031z"/>
 </g>
</svg>
