<?xml version="1.0" encoding="UTF-8"?>
<svg width="1200pt" height="1200pt" version="1.1" viewBox="0 0 1200 1200" xmlns="http://www.w3.org/2000/svg">
 <g fill="#fff">
  <path d="m1147.8 528.48c2.875 79.008-25.496 151.3-40.992 225.96-11.363 54.746-41.891 96.41-76.211 137.06-20.957 24.82-41.57 50.016-63.941 73.52h-0.003906c-11.047 10.285-23.359 19.121-36.641 26.293-111.19 68.324-228.25 112.68-361.7 83.344-87.062-19.133-174.94-36.039-260.21-61.453l0.003907 0.003906c-80.41-24.496-150.29-75.234-198.47-144.11-38.293-54.379-58.445-119.45-57.586-185.96-1.0391-97.789 15.906-193.07 37.441-288.67 20.898-85.645 55.785-167.25 103.26-241.54 4.9922-8.6172 10.977-16.613 17.836-23.832 20.902-20.996 37.941-15.98 46.312 11.457 5.3125 14.195 11.566 28.023 18.715 41.387 17.102 37.242 35.109 74.109 50.855 111.92 7.3281 17.602 11.156 24.531 34.293 16.559 70.332-24.242 143.2-24.703 216.77-13.715h-0.003906c77.965 9.5547 154.68 27.469 228.81 53.43 10.297 1.0586 20.453-3.0234 27.16-10.906 30.77-43.211 59.621-87.789 89.312-131.78 4.5234-6.7305 9.6211-13.051 15.238-18.895 39.297-40.664 54.566-38.445 85.113 8.3438 46.52 71.258 86.672 145.66 108.93 228.05h-0.003907c7.2812 34.164 12.531 68.73 15.715 103.52zm-924.76-366.01c-52.688 66.047-89.656 143.22-108.11 225.66-24.801 101.46-44.219 202.81-39.48 307.75 5.418 120.02 66.414 205.48 166.97 264.7 87.938 51.797 186.88 70.387 285.76 86.887 48.648 8.1172 98.871 19.27 147.05 14.777 70.895-6.9062 139.51-28.824 201.28-64.301 104.44-59.008 173.88-143.68 206.32-258.51 22.965-81.289 11.91-165.19 17.195-247.86 6.2188-97.207-33.328-177.65-83.23-254.77-35.371-54.664-48.062-54.871-86.418-2.0898-30.633 42.152-56.953 87.535-83.684 132.38-10.824 18.16-21.555 18.531-40.086 11.789l-0.003906 0.003907c-41.188-15.586-83.266-28.703-126.02-39.277-46.645-10.988-93.945-18.969-141.61-23.891-67.074-6.7773-134.21-4.793-194.55 30.98-21.672 12.852-28.93 8.4492-38.82-13.902-25.023-56.562-53.742-111.49-82.574-170.33z"/>
  <path d="m519.78 479.81c41.52-49.309 101.61-61.555 167.53-52.133 60.344 8.6211 98.816 46.988 119.86 101.51 21.496 55.715 18.852 109.83-25.398 155.86l0.003906-0.003906c-5.5469 5.8984-11.832 11.055-18.699 15.344-56.852 34.363-119.77 38.031-183.27 32.07-18.664-1.75-36.699-13.992-54.047-23.262-3.9766-5.2188-6.5273-11.383-7.3906-17.891 6.0742-2.082 12.566-2.625 18.902-1.5742 70.34 41.613 139.89 21.129 207.53-5 39.395-15.219 58.688-81.656 46.652-127.86-32.098-123.2-175.87-136.23-252.91-60.285-6.6016 6.5078-6.4375 24.891-2.9727 35.688 12.109 37.73 21.727 74.809 3.3438 113.05-30.648 63.758-102.95 99.176-179.73 85.098-64.738-11.867-116.36-45.516-140.75-108.43l-0.003906 0.003906c-7.1758-22.379-6.543-46.531 1.8008-68.496 20.199-52.629 38.434-109.21 96.492-134.87 33.898-14.984 69.324-21.379 103.83-0.46484 31.992 19.395 63.582 39.453 99.238 61.641zm-142.05 231.01c25.648-4.6992 51.762-7.6914 76.832-14.516 35.316-9.6133 77.082-59.906 73.023-93.016-7.0703-57.703-23.953-113.48-76.344-147.3-33.453-21.594-70.789-38.504-112.57-21.785-51.793 20.727-106.86 115.04-99.582 170.95h-0.003907c0.95312 12.629 5.1875 24.793 12.281 35.285 32.203 39.766 70.215 70.555 126.37 70.383z"/>
  <path d="m493.42 762.29c1.9961-2.8359 3.7031-4.9062 5.0273-7.1953 9.4219-16.312 20.383-29.508 40.645-14.984h0.003906c7.8984 6.2344 13.047 15.309 14.344 25.289 1.293 9.9766-1.3672 20.066-7.4102 28.109-6.7617 9.582-14.297 18.617-21.164 28.129-15.211 21.078-11.008 43.754-1.4062 64.496 8.8359 19.086 26.113 14.922 42.418 8.8242 10.203-4.1836 21.203-6.0703 32.215-5.5156-8.543 26.211-32.465 25.395-51.32 29.891-29.836 7.1094-39.363-18.781-51.176-38.449-15.188 11.297-31.07 21.633-47.551 30.945-8.8633 3.6836-18.867 3.4805-27.574-0.5625-6.6211-3.5742-9.1836-14.672-13.539-22.449 7.5625 0.18359 15.129 0.65234 22.684 0.46875h-0.003906c7.4883 0.94141 15.09 0.27344 22.297-1.957 16.332-8.7617 27.695-24.582 30.781-42.855 3.0859-18.273-2.4492-36.949-14.992-50.59-9.2969-9.8047-17.664-20.449-24.996-31.797-1.6289-6.4883-1.7422-13.266-0.32422-19.805 6.6484-0.89453 13.402-0.57031 19.934 0.94922 10.781 5.6562 21.176 12.023 31.109 19.059z"/>
  <path d="m598.19 598.33c14.301-15.672 22.184-31.914 33.824-35.324 18.43-5.4023 40.293 17.926 40.887 37.766 0.57812 19.281-20.746 44.293-36.543 37.805-13.586-5.5898-22.395-22.809-38.168-40.246z"/>
  <path d="m374.7 538.55c24.465 0.91797 44.102 17.309 42.625 35.574-1.6172 10.215-6.6406 19.586-14.254 26.59-7.6133 7-17.371 11.223-27.688 11.98-18.125-1.4141-32.312-22.723-31.121-46.742 1.082-21.805 8.2266-28.238 30.438-27.402z"/>
 </g>
</svg>
